<svg xmlns="http://www.w3.org/2000/svg" width="519" height="376" viewBox="0 0 519 376" font-family="ui-monospace, Menlo, Consolas, monospace" font-size="16"><rect width="100%" height="100%" rx="10" fill="#17161b"/><rect x="1" y="1" width="517" height="374" rx="10" fill="#100f13" stroke="#2a2833" stroke-width="1"/><circle cx="24" cy="26" r="6" fill="#b6553f"/><circle cx="44" cy="26" r="6" fill="#cca24c"/><circle cx="64" cy="26" r="6" fill="#6f9463"/><text x="92" y="31" fill="#9d967f" font-size="13" style="letter-spacing:2px">MINIPAINTER CLI</text><line x1="0" y1="48" x2="519" y2="48" stroke="#221f2a" stroke-width="1"/><g xml:space="preserve"><text x="28.8" y="68" text-anchor="middle" fill="#ece5d2">$</text><text x="48.0" y="68" text-anchor="middle" fill="#ece5d2">n</text><text x="57.6" y="68" text-anchor="middle" fill="#ece5d2">o</text><text x="67.2" y="68" text-anchor="middle" fill="#ece5d2">d</text><text x="76.8" y="68" text-anchor="middle" fill="#ece5d2">e</text><text x="96.0" y="68" text-anchor="middle" fill="#ece5d2">s</text><text x="105.6" y="68" text-anchor="middle" fill="#ece5d2">r</text><text x="115.2" y="68" text-anchor="middle" fill="#ece5d2">c</text><text x="124.8" y="68" text-anchor="middle" fill="#ece5d2">/</text><text x="134.4" y="68" text-anchor="middle" fill="#ece5d2">c</text><text x="144.0" y="68" text-anchor="middle" fill="#ece5d2">l</text><text x="153.6" y="68" text-anchor="middle" fill="#ece5d2">i</text><text x="163.2" y="68" text-anchor="middle" fill="#ece5d2">.</text><text x="172.8" y="68" text-anchor="middle" fill="#ece5d2">m</text><text x="182.4" y="68" text-anchor="middle" fill="#ece5d2">j</text><text x="192.0" y="68" text-anchor="middle" fill="#ece5d2">s</text><text x="211.2" y="68" text-anchor="middle" fill="#ece5d2">p</text><text x="220.8" y="68" text-anchor="middle" fill="#ece5d2">a</text><text x="230.4" y="68" text-anchor="middle" fill="#ece5d2">i</text><text x="240.0" y="68" text-anchor="middle" fill="#ece5d2">n</text><text x="249.6" y="68" text-anchor="middle" fill="#ece5d2">t</text><text x="268.8" y="68" text-anchor="middle" fill="#ece5d2">s</text><text x="278.4" y="68" text-anchor="middle" fill="#ece5d2">e</text><text x="288.0" y="68" text-anchor="middle" fill="#ece5d2">a</text><text x="297.6" y="68" text-anchor="middle" fill="#ece5d2">r</text><text x="307.2" y="68" text-anchor="middle" fill="#ece5d2">c</text><text x="316.8" y="68" text-anchor="middle" fill="#ece5d2">h</text><text x="336.0" y="68" text-anchor="middle" fill="#ece5d2">b</text><text x="345.6" y="68" text-anchor="middle" fill="#ece5d2">o</text><text x="355.2" y="68" text-anchor="middle" fill="#ece5d2">n</text><text x="364.8" y="68" text-anchor="middle" fill="#ece5d2">e</text><text x="28.8" y="88" text-anchor="middle" fill="#ece5d2">F</text><text x="38.4" y="88" text-anchor="middle" fill="#ece5d2">o</text><text x="48.0" y="88" text-anchor="middle" fill="#ece5d2">u</text><text x="57.6" y="88" text-anchor="middle" fill="#ece5d2">n</text><text x="67.2" y="88" text-anchor="middle" fill="#ece5d2">d</text><text x="86.4" y="88" text-anchor="middle" fill="#ece5d2">p</text><text x="96.0" y="88" text-anchor="middle" fill="#ece5d2">a</text><text x="105.6" y="88" text-anchor="middle" fill="#ece5d2">i</text><text x="115.2" y="88" text-anchor="middle" fill="#ece5d2">n</text><text x="124.8" y="88" text-anchor="middle" fill="#ece5d2">t</text><text x="144.0" y="88" text-anchor="middle" fill="#ece5d2">m</text><text x="153.6" y="88" text-anchor="middle" fill="#ece5d2">a</text><text x="163.2" y="88" text-anchor="middle" fill="#ece5d2">t</text><text x="172.8" y="88" text-anchor="middle" fill="#ece5d2">c</text><text x="182.4" y="88" text-anchor="middle" fill="#ece5d2">h</text><text x="192.0" y="88" text-anchor="middle" fill="#ece5d2">e</text><text x="201.6" y="88" text-anchor="middle" fill="#ece5d2">s</text><text x="28.8" y="108" text-anchor="middle" fill="#ece5d2">P</text><text x="38.4" y="108" text-anchor="middle" fill="#ece5d2">a</text><text x="48.0" y="108" text-anchor="middle" fill="#ece5d2">l</text><text x="57.6" y="108" text-anchor="middle" fill="#ece5d2">l</text><text x="67.2" y="108" text-anchor="middle" fill="#ece5d2">i</text><text x="76.8" y="108" text-anchor="middle" fill="#ece5d2">d</text><text x="96.0" y="108" text-anchor="middle" fill="#ece5d2">B</text><text x="105.6" y="108" text-anchor="middle" fill="#ece5d2">o</text><text x="115.2" y="108" text-anchor="middle" fill="#ece5d2">n</text><text x="124.8" y="108" text-anchor="middle" fill="#ece5d2">e</text><text x="144.0" y="108" text-anchor="middle" fill="#ece5d2">[</text><text x="153.6" y="108" text-anchor="middle" fill="#ece5d2">a</text><text x="163.2" y="108" text-anchor="middle" fill="#ece5d2">r</text><text x="172.8" y="108" text-anchor="middle" fill="#ece5d2">m</text><text x="182.4" y="108" text-anchor="middle" fill="#ece5d2">y</text><text x="192.0" y="108" text-anchor="middle" fill="#ece5d2">_</text><text x="201.6" y="108" text-anchor="middle" fill="#ece5d2">p</text><text x="211.2" y="108" text-anchor="middle" fill="#ece5d2">a</text><text x="220.8" y="108" text-anchor="middle" fill="#ece5d2">i</text><text x="230.4" y="108" text-anchor="middle" fill="#ece5d2">n</text><text x="240.0" y="108" text-anchor="middle" fill="#ece5d2">t</text><text x="249.6" y="108" text-anchor="middle" fill="#ece5d2">e</text><text x="259.2" y="108" text-anchor="middle" fill="#ece5d2">r</text><text x="268.8" y="108" text-anchor="middle" fill="#ece5d2">/</text><text x="278.4" y="108" text-anchor="middle" fill="#ece5d2">p</text><text x="288.0" y="108" text-anchor="middle" fill="#ece5d2">a</text><text x="297.6" y="108" text-anchor="middle" fill="#ece5d2">l</text><text x="307.2" y="108" text-anchor="middle" fill="#ece5d2">l</text><text x="316.8" y="108" text-anchor="middle" fill="#ece5d2">i</text><text x="326.4" y="108" text-anchor="middle" fill="#ece5d2">d</text><text x="336.0" y="108" text-anchor="middle" fill="#ece5d2">-</text><text x="345.6" y="108" text-anchor="middle" fill="#ece5d2">b</text><text x="355.2" y="108" text-anchor="middle" fill="#ece5d2">o</text><text x="364.8" y="108" text-anchor="middle" fill="#ece5d2">n</text><text x="374.4" y="108" text-anchor="middle" fill="#ece5d2">e</text><text x="384.0" y="108" text-anchor="middle" fill="#ece5d2">]</text><text x="403.2" y="108" text-anchor="middle" fill="#ece5d2">o</text><text x="412.8" y="108" text-anchor="middle" fill="#ece5d2">w</text><text x="422.4" y="108" text-anchor="middle" fill="#ece5d2">n</text><text x="432.0" y="108" text-anchor="middle" fill="#ece5d2">e</text><text x="441.6" y="108" text-anchor="middle" fill="#ece5d2">d</text><text x="28.8" y="128" text-anchor="middle" fill="#ece5d2">S</text><text x="38.4" y="128" text-anchor="middle" fill="#ece5d2">k</text><text x="48.0" y="128" text-anchor="middle" fill="#ece5d2">e</text><text x="57.6" y="128" text-anchor="middle" fill="#ece5d2">l</text><text x="67.2" y="128" text-anchor="middle" fill="#ece5d2">e</text><text x="76.8" y="128" text-anchor="middle" fill="#ece5d2">t</text><text x="86.4" y="128" text-anchor="middle" fill="#ece5d2">o</text><text x="96.0" y="128" text-anchor="middle" fill="#ece5d2">n</text><text x="115.2" y="128" text-anchor="middle" fill="#ece5d2">H</text><text x="124.8" y="128" text-anchor="middle" fill="#ece5d2">o</text><text x="134.4" y="128" text-anchor="middle" fill="#ece5d2">r</text><text x="144.0" y="128" text-anchor="middle" fill="#ece5d2">d</text><text x="153.6" y="128" text-anchor="middle" fill="#ece5d2">e</text><text x="172.8" y="128" text-anchor="middle" fill="#ece5d2">[</text><text x="182.4" y="128" text-anchor="middle" fill="#ece5d2">c</text><text x="192.0" y="128" text-anchor="middle" fill="#ece5d2">i</text><text x="201.6" y="128" text-anchor="middle" fill="#ece5d2">t</text><text x="211.2" y="128" text-anchor="middle" fill="#ece5d2">a</text><text x="220.8" y="128" text-anchor="middle" fill="#ece5d2">d</text><text x="230.4" y="128" text-anchor="middle" fill="#ece5d2">e</text><text x="240.0" y="128" text-anchor="middle" fill="#ece5d2">l</text><text x="249.6" y="128" text-anchor="middle" fill="#ece5d2">/</text><text x="259.2" y="128" text-anchor="middle" fill="#ece5d2">s</text><text x="268.8" y="128" text-anchor="middle" fill="#ece5d2">k</text><text x="278.4" y="128" text-anchor="middle" fill="#ece5d2">e</text><text x="288.0" y="128" text-anchor="middle" fill="#ece5d2">l</text><text x="297.6" y="128" text-anchor="middle" fill="#ece5d2">e</text><text x="307.2" y="128" text-anchor="middle" fill="#ece5d2">t</text><text x="316.8" y="128" text-anchor="middle" fill="#ece5d2">o</text><text x="326.4" y="128" text-anchor="middle" fill="#ece5d2">n</text><text x="336.0" y="128" text-anchor="middle" fill="#ece5d2">-</text><text x="345.6" y="128" text-anchor="middle" fill="#ece5d2">h</text><text x="355.2" y="128" text-anchor="middle" fill="#ece5d2">o</text><text x="364.8" y="128" text-anchor="middle" fill="#ece5d2">r</text><text x="374.4" y="128" text-anchor="middle" fill="#ece5d2">d</text><text x="384.0" y="128" text-anchor="middle" fill="#ece5d2">e</text><text x="393.6" y="128" text-anchor="middle" fill="#ece5d2">]</text><text x="28.8" y="168" text-anchor="middle" fill="#ece5d2">$</text><text x="48.0" y="168" text-anchor="middle" fill="#ece5d2">n</text><text x="57.6" y="168" text-anchor="middle" fill="#ece5d2">o</text><text x="67.2" y="168" text-anchor="middle" fill="#ece5d2">d</text><text x="76.8" y="168" text-anchor="middle" fill="#ece5d2">e</text><text x="96.0" y="168" text-anchor="middle" fill="#ece5d2">s</text><text x="105.6" y="168" text-anchor="middle" fill="#ece5d2">r</text><text x="115.2" y="168" text-anchor="middle" fill="#ece5d2">c</text><text x="124.8" y="168" text-anchor="middle" fill="#ece5d2">/</text><text x="134.4" y="168" text-anchor="middle" fill="#ece5d2">c</text><text x="144.0" y="168" text-anchor="middle" fill="#ece5d2">l</text><text x="153.6" y="168" text-anchor="middle" fill="#ece5d2">i</text><text x="163.2" y="168" text-anchor="middle" fill="#ece5d2">.</text><text x="172.8" y="168" text-anchor="middle" fill="#ece5d2">m</text><text x="182.4" y="168" text-anchor="middle" fill="#ece5d2">j</text><text x="192.0" y="168" text-anchor="middle" fill="#ece5d2">s</text><text x="211.2" y="168" text-anchor="middle" fill="#ece5d2">i</text><text x="220.8" y="168" text-anchor="middle" fill="#ece5d2">n</text><text x="230.4" y="168" text-anchor="middle" fill="#ece5d2">v</text><text x="240.0" y="168" text-anchor="middle" fill="#ece5d2">e</text><text x="249.6" y="168" text-anchor="middle" fill="#ece5d2">n</text><text x="259.2" y="168" text-anchor="middle" fill="#ece5d2">t</text><text x="268.8" y="168" text-anchor="middle" fill="#ece5d2">o</text><text x="278.4" y="168" text-anchor="middle" fill="#ece5d2">r</text><text x="288.0" y="168" text-anchor="middle" fill="#ece5d2">y</text><text x="307.2" y="168" text-anchor="middle" fill="#ece5d2">o</text><text x="316.8" y="168" text-anchor="middle" fill="#ece5d2">w</text><text x="326.4" y="168" text-anchor="middle" fill="#ece5d2">n</text><text x="345.6" y="168" text-anchor="middle" fill="#ece5d2">"</text><text x="355.2" y="168" text-anchor="middle" fill="#ece5d2">S</text><text x="364.8" y="168" text-anchor="middle" fill="#ece5d2">k</text><text x="374.4" y="168" text-anchor="middle" fill="#ece5d2">e</text><text x="384.0" y="168" text-anchor="middle" fill="#ece5d2">l</text><text x="393.6" y="168" text-anchor="middle" fill="#ece5d2">e</text><text x="403.2" y="168" text-anchor="middle" fill="#ece5d2">t</text><text x="412.8" y="168" text-anchor="middle" fill="#ece5d2">o</text><text x="422.4" y="168" text-anchor="middle" fill="#ece5d2">n</text><text x="441.6" y="168" text-anchor="middle" fill="#ece5d2">H</text><text x="451.2" y="168" text-anchor="middle" fill="#ece5d2">o</text><text x="460.8" y="168" text-anchor="middle" fill="#ece5d2">r</text><text x="470.4" y="168" text-anchor="middle" fill="#ece5d2">d</text><text x="480.0" y="168" text-anchor="middle" fill="#ece5d2">e</text><text x="489.6" y="168" text-anchor="middle" fill="#ece5d2">"</text><text x="28.8" y="188" text-anchor="middle" fill="#ece5d2">S</text><text x="38.4" y="188" text-anchor="middle" fill="#ece5d2">k</text><text x="48.0" y="188" text-anchor="middle" fill="#ece5d2">e</text><text x="57.6" y="188" text-anchor="middle" fill="#ece5d2">l</text><text x="67.2" y="188" text-anchor="middle" fill="#ece5d2">e</text><text x="76.8" y="188" text-anchor="middle" fill="#ece5d2">t</text><text x="86.4" y="188" text-anchor="middle" fill="#ece5d2">o</text><text x="96.0" y="188" text-anchor="middle" fill="#ece5d2">n</text><text x="115.2" y="188" text-anchor="middle" fill="#ece5d2">H</text><text x="124.8" y="188" text-anchor="middle" fill="#ece5d2">o</text><text x="134.4" y="188" text-anchor="middle" fill="#ece5d2">r</text><text x="144.0" y="188" text-anchor="middle" fill="#ece5d2">d</text><text x="153.6" y="188" text-anchor="middle" fill="#ece5d2">e</text><text x="172.8" y="188" text-anchor="middle" fill="#ece5d2">o</text><text x="182.4" y="188" text-anchor="middle" fill="#ece5d2">w</text><text x="192.0" y="188" text-anchor="middle" fill="#ece5d2">n</text><text x="201.6" y="188" text-anchor="middle" fill="#ece5d2">e</text><text x="211.2" y="188" text-anchor="middle" fill="#ece5d2">r</text><text x="220.8" y="188" text-anchor="middle" fill="#ece5d2">s</text><text x="230.4" y="188" text-anchor="middle" fill="#ece5d2">h</text><text x="240.0" y="188" text-anchor="middle" fill="#ece5d2">i</text><text x="249.6" y="188" text-anchor="middle" fill="#ece5d2">p</text><text x="268.8" y="188" text-anchor="middle" fill="#ece5d2">u</text><text x="278.4" y="188" text-anchor="middle" fill="#ece5d2">p</text><text x="288.0" y="188" text-anchor="middle" fill="#ece5d2">d</text><text x="297.6" y="188" text-anchor="middle" fill="#ece5d2">a</text><text x="307.2" y="188" text-anchor="middle" fill="#ece5d2">t</text><text x="316.8" y="188" text-anchor="middle" fill="#ece5d2">e</text><text x="326.4" y="188" text-anchor="middle" fill="#ece5d2">d</text><text x="28.8" y="208" text-anchor="middle" fill="#ece5d2">S</text><text x="38.4" y="208" text-anchor="middle" fill="#ece5d2">k</text><text x="48.0" y="208" text-anchor="middle" fill="#ece5d2">e</text><text x="57.6" y="208" text-anchor="middle" fill="#ece5d2">l</text><text x="67.2" y="208" text-anchor="middle" fill="#ece5d2">e</text><text x="76.8" y="208" text-anchor="middle" fill="#ece5d2">t</text><text x="86.4" y="208" text-anchor="middle" fill="#ece5d2">o</text><text x="96.0" y="208" text-anchor="middle" fill="#ece5d2">n</text><text x="115.2" y="208" text-anchor="middle" fill="#ece5d2">H</text><text x="124.8" y="208" text-anchor="middle" fill="#ece5d2">o</text><text x="134.4" y="208" text-anchor="middle" fill="#ece5d2">r</text><text x="144.0" y="208" text-anchor="middle" fill="#ece5d2">d</text><text x="153.6" y="208" text-anchor="middle" fill="#ece5d2">e</text><text x="172.8" y="208" text-anchor="middle" fill="#ece5d2">[</text><text x="182.4" y="208" text-anchor="middle" fill="#ece5d2">c</text><text x="192.0" y="208" text-anchor="middle" fill="#ece5d2">i</text><text x="201.6" y="208" text-anchor="middle" fill="#ece5d2">t</text><text x="211.2" y="208" text-anchor="middle" fill="#ece5d2">a</text><text x="220.8" y="208" text-anchor="middle" fill="#ece5d2">d</text><text x="230.4" y="208" text-anchor="middle" fill="#ece5d2">e</text><text x="240.0" y="208" text-anchor="middle" fill="#ece5d2">l</text><text x="249.6" y="208" text-anchor="middle" fill="#ece5d2">/</text><text x="259.2" y="208" text-anchor="middle" fill="#ece5d2">s</text><text x="268.8" y="208" text-anchor="middle" fill="#ece5d2">k</text><text x="278.4" y="208" text-anchor="middle" fill="#ece5d2">e</text><text x="288.0" y="208" text-anchor="middle" fill="#ece5d2">l</text><text x="297.6" y="208" text-anchor="middle" fill="#ece5d2">e</text><text x="307.2" y="208" text-anchor="middle" fill="#ece5d2">t</text><text x="316.8" y="208" text-anchor="middle" fill="#ece5d2">o</text><text x="326.4" y="208" text-anchor="middle" fill="#ece5d2">n</text><text x="336.0" y="208" text-anchor="middle" fill="#ece5d2">-</text><text x="345.6" y="208" text-anchor="middle" fill="#ece5d2">h</text><text x="355.2" y="208" text-anchor="middle" fill="#ece5d2">o</text><text x="364.8" y="208" text-anchor="middle" fill="#ece5d2">r</text><text x="374.4" y="208" text-anchor="middle" fill="#ece5d2">d</text><text x="384.0" y="208" text-anchor="middle" fill="#ece5d2">e</text><text x="393.6" y="208" text-anchor="middle" fill="#ece5d2">]</text><text x="412.8" y="208" text-anchor="middle" fill="#ece5d2">o</text><text x="422.4" y="208" text-anchor="middle" fill="#ece5d2">w</text><text x="432.0" y="208" text-anchor="middle" fill="#ece5d2">n</text><text x="441.6" y="208" text-anchor="middle" fill="#ece5d2">e</text><text x="451.2" y="208" text-anchor="middle" fill="#ece5d2">d</text><text x="28.8" y="248" text-anchor="middle" fill="#ece5d2">$</text><text x="48.0" y="248" text-anchor="middle" fill="#ece5d2">n</text><text x="57.6" y="248" text-anchor="middle" fill="#ece5d2">o</text><text x="67.2" y="248" text-anchor="middle" fill="#ece5d2">d</text><text x="76.8" y="248" text-anchor="middle" fill="#ece5d2">e</text><text x="96.0" y="248" text-anchor="middle" fill="#ece5d2">s</text><text x="105.6" y="248" text-anchor="middle" fill="#ece5d2">r</text><text x="115.2" y="248" text-anchor="middle" fill="#ece5d2">c</text><text x="124.8" y="248" text-anchor="middle" fill="#ece5d2">/</text><text x="134.4" y="248" text-anchor="middle" fill="#ece5d2">c</text><text x="144.0" y="248" text-anchor="middle" fill="#ece5d2">l</text><text x="153.6" y="248" text-anchor="middle" fill="#ece5d2">i</text><text x="163.2" y="248" text-anchor="middle" fill="#ece5d2">.</text><text x="172.8" y="248" text-anchor="middle" fill="#ece5d2">m</text><text x="182.4" y="248" text-anchor="middle" fill="#ece5d2">j</text><text x="192.0" y="248" text-anchor="middle" fill="#ece5d2">s</text><text x="211.2" y="248" text-anchor="middle" fill="#ece5d2">m</text><text x="220.8" y="248" text-anchor="middle" fill="#ece5d2">a</text><text x="230.4" y="248" text-anchor="middle" fill="#ece5d2">t</text><text x="240.0" y="248" text-anchor="middle" fill="#ece5d2">c</text><text x="249.6" y="248" text-anchor="middle" fill="#ece5d2">h</text><text x="268.8" y="248" text-anchor="middle" fill="#ece5d2">c</text><text x="278.4" y="248" text-anchor="middle" fill="#ece5d2">o</text><text x="288.0" y="248" text-anchor="middle" fill="#ece5d2">l</text><text x="297.6" y="248" text-anchor="middle" fill="#ece5d2">o</text><text x="307.2" y="248" text-anchor="middle" fill="#ece5d2">r</text><text x="326.4" y="248" text-anchor="middle" fill="#ece5d2">"</text><text x="336.0" y="248" text-anchor="middle" fill="#ece5d2">#</text><text x="345.6" y="248" text-anchor="middle" fill="#ece5d2">d</text><text x="355.2" y="248" text-anchor="middle" fill="#ece5d2">2</text><text x="364.8" y="248" text-anchor="middle" fill="#ece5d2">c</text><text x="374.4" y="248" text-anchor="middle" fill="#ece5d2">2</text><text x="384.0" y="248" text-anchor="middle" fill="#ece5d2">9</text><text x="393.6" y="248" text-anchor="middle" fill="#ece5d2">b</text><text x="403.2" y="248" text-anchor="middle" fill="#ece5d2">"</text><text x="28.8" y="268" text-anchor="middle" fill="#ece5d2">C</text><text x="38.4" y="268" text-anchor="middle" fill="#ece5d2">o</text><text x="48.0" y="268" text-anchor="middle" fill="#ece5d2">l</text><text x="57.6" y="268" text-anchor="middle" fill="#ece5d2">o</text><text x="67.2" y="268" text-anchor="middle" fill="#ece5d2">r</text><text x="86.4" y="268" text-anchor="middle" fill="#ece5d2">m</text><text x="96.0" y="268" text-anchor="middle" fill="#ece5d2">a</text><text x="105.6" y="268" text-anchor="middle" fill="#ece5d2">t</text><text x="115.2" y="268" text-anchor="middle" fill="#ece5d2">c</text><text x="124.8" y="268" text-anchor="middle" fill="#ece5d2">h</text><text x="134.4" y="268" text-anchor="middle" fill="#ece5d2">e</text><text x="144.0" y="268" text-anchor="middle" fill="#ece5d2">s</text><text x="28.8" y="288" text-anchor="middle" fill="#ece5d2">P</text><text x="38.4" y="288" text-anchor="middle" fill="#ece5d2">a</text><text x="48.0" y="288" text-anchor="middle" fill="#ece5d2">l</text><text x="57.6" y="288" text-anchor="middle" fill="#ece5d2">l</text><text x="67.2" y="288" text-anchor="middle" fill="#ece5d2">i</text><text x="76.8" y="288" text-anchor="middle" fill="#ece5d2">d</text><text x="96.0" y="288" text-anchor="middle" fill="#ece5d2">B</text><text x="105.6" y="288" text-anchor="middle" fill="#ece5d2">o</text><text x="115.2" y="288" text-anchor="middle" fill="#ece5d2">n</text><text x="124.8" y="288" text-anchor="middle" fill="#ece5d2">e</text><text x="144.0" y="288" text-anchor="middle" fill="#ece5d2">[</text><text x="153.6" y="288" text-anchor="middle" fill="#ece5d2">a</text><text x="163.2" y="288" text-anchor="middle" fill="#ece5d2">r</text><text x="172.8" y="288" text-anchor="middle" fill="#ece5d2">m</text><text x="182.4" y="288" text-anchor="middle" fill="#ece5d2">y</text><text x="192.0" y="288" text-anchor="middle" fill="#ece5d2">_</text><text x="201.6" y="288" text-anchor="middle" fill="#ece5d2">p</text><text x="211.2" y="288" text-anchor="middle" fill="#ece5d2">a</text><text x="220.8" y="288" text-anchor="middle" fill="#ece5d2">i</text><text x="230.4" y="288" text-anchor="middle" fill="#ece5d2">n</text><text x="240.0" y="288" text-anchor="middle" fill="#ece5d2">t</text><text x="249.6" y="288" text-anchor="middle" fill="#ece5d2">e</text><text x="259.2" y="288" text-anchor="middle" fill="#ece5d2">r</text><text x="268.8" y="288" text-anchor="middle" fill="#ece5d2">/</text><text x="278.4" y="288" text-anchor="middle" fill="#ece5d2">p</text><text x="288.0" y="288" text-anchor="middle" fill="#ece5d2">a</text><text x="297.6" y="288" text-anchor="middle" fill="#ece5d2">l</text><text x="307.2" y="288" text-anchor="middle" fill="#ece5d2">l</text><text x="316.8" y="288" text-anchor="middle" fill="#ece5d2">i</text><text x="326.4" y="288" text-anchor="middle" fill="#ece5d2">d</text><text x="336.0" y="288" text-anchor="middle" fill="#ece5d2">-</text><text x="345.6" y="288" text-anchor="middle" fill="#ece5d2">b</text><text x="355.2" y="288" text-anchor="middle" fill="#ece5d2">o</text><text x="364.8" y="288" text-anchor="middle" fill="#ece5d2">n</text><text x="374.4" y="288" text-anchor="middle" fill="#ece5d2">e</text><text x="384.0" y="288" text-anchor="middle" fill="#ece5d2">]</text><text x="403.2" y="288" text-anchor="middle" fill="#ece5d2">o</text><text x="412.8" y="288" text-anchor="middle" fill="#ece5d2">w</text><text x="422.4" y="288" text-anchor="middle" fill="#ece5d2">n</text><text x="432.0" y="288" text-anchor="middle" fill="#ece5d2">e</text><text x="441.6" y="288" text-anchor="middle" fill="#ece5d2">d</text><text x="28.8" y="308" text-anchor="middle" fill="#ece5d2">S</text><text x="38.4" y="308" text-anchor="middle" fill="#ece5d2">k</text><text x="48.0" y="308" text-anchor="middle" fill="#ece5d2">e</text><text x="57.6" y="308" text-anchor="middle" fill="#ece5d2">l</text><text x="67.2" y="308" text-anchor="middle" fill="#ece5d2">e</text><text x="76.8" y="308" text-anchor="middle" fill="#ece5d2">t</text><text x="86.4" y="308" text-anchor="middle" fill="#ece5d2">o</text><text x="96.0" y="308" text-anchor="middle" fill="#ece5d2">n</text><text x="115.2" y="308" text-anchor="middle" fill="#ece5d2">H</text><text x="124.8" y="308" text-anchor="middle" fill="#ece5d2">o</text><text x="134.4" y="308" text-anchor="middle" fill="#ece5d2">r</text><text x="144.0" y="308" text-anchor="middle" fill="#ece5d2">d</text><text x="153.6" y="308" text-anchor="middle" fill="#ece5d2">e</text><text x="172.8" y="308" text-anchor="middle" fill="#ece5d2">[</text><text x="182.4" y="308" text-anchor="middle" fill="#ece5d2">c</text><text x="192.0" y="308" text-anchor="middle" fill="#ece5d2">i</text><text x="201.6" y="308" text-anchor="middle" fill="#ece5d2">t</text><text x="211.2" y="308" text-anchor="middle" fill="#ece5d2">a</text><text x="220.8" y="308" text-anchor="middle" fill="#ece5d2">d</text><text x="230.4" y="308" text-anchor="middle" fill="#ece5d2">e</text><text x="240.0" y="308" text-anchor="middle" fill="#ece5d2">l</text><text x="249.6" y="308" text-anchor="middle" fill="#ece5d2">/</text><text x="259.2" y="308" text-anchor="middle" fill="#ece5d2">s</text><text x="268.8" y="308" text-anchor="middle" fill="#ece5d2">k</text><text x="278.4" y="308" text-anchor="middle" fill="#ece5d2">e</text><text x="288.0" y="308" text-anchor="middle" fill="#ece5d2">l</text><text x="297.6" y="308" text-anchor="middle" fill="#ece5d2">e</text><text x="307.2" y="308" text-anchor="middle" fill="#ece5d2">t</text><text x="316.8" y="308" text-anchor="middle" fill="#ece5d2">o</text><text x="326.4" y="308" text-anchor="middle" fill="#ece5d2">n</text><text x="336.0" y="308" text-anchor="middle" fill="#ece5d2">-</text><text x="345.6" y="308" text-anchor="middle" fill="#ece5d2">h</text><text x="355.2" y="308" text-anchor="middle" fill="#ece5d2">o</text><text x="364.8" y="308" text-anchor="middle" fill="#ece5d2">r</text><text x="374.4" y="308" text-anchor="middle" fill="#ece5d2">d</text><text x="384.0" y="308" text-anchor="middle" fill="#ece5d2">e</text><text x="393.6" y="308" text-anchor="middle" fill="#ece5d2">]</text><text x="412.8" y="308" text-anchor="middle" fill="#ece5d2">o</text><text x="422.4" y="308" text-anchor="middle" fill="#ece5d2">w</text><text x="432.0" y="308" text-anchor="middle" fill="#ece5d2">n</text><text x="441.6" y="308" text-anchor="middle" fill="#ece5d2">e</text><text x="451.2" y="308" text-anchor="middle" fill="#ece5d2">d</text><text x="28.8" y="328" text-anchor="middle" fill="#ece5d2">L</text><text x="38.4" y="328" text-anchor="middle" fill="#ece5d2">e</text><text x="48.0" y="328" text-anchor="middle" fill="#ece5d2">a</text><text x="57.6" y="328" text-anchor="middle" fill="#ece5d2">d</text><text x="67.2" y="328" text-anchor="middle" fill="#ece5d2">b</text><text x="76.8" y="328" text-anchor="middle" fill="#ece5d2">e</text><text x="86.4" y="328" text-anchor="middle" fill="#ece5d2">l</text><text x="96.0" y="328" text-anchor="middle" fill="#ece5d2">c</text><text x="105.6" y="328" text-anchor="middle" fill="#ece5d2">h</text><text x="115.2" y="328" text-anchor="middle" fill="#ece5d2">e</text><text x="124.8" y="328" text-anchor="middle" fill="#ece5d2">r</text><text x="144.0" y="328" text-anchor="middle" fill="#ece5d2">[</text><text x="153.6" y="328" text-anchor="middle" fill="#ece5d2">c</text><text x="163.2" y="328" text-anchor="middle" fill="#ece5d2">i</text><text x="172.8" y="328" text-anchor="middle" fill="#ece5d2">t</text><text x="182.4" y="328" text-anchor="middle" fill="#ece5d2">a</text><text x="192.0" y="328" text-anchor="middle" fill="#ece5d2">d</text><text x="201.6" y="328" text-anchor="middle" fill="#ece5d2">e</text><text x="211.2" y="328" text-anchor="middle" fill="#ece5d2">l</text><text x="220.8" y="328" text-anchor="middle" fill="#ece5d2">/</text><text x="230.4" y="328" text-anchor="middle" fill="#ece5d2">l</text><text x="240.0" y="328" text-anchor="middle" fill="#ece5d2">e</text><text x="249.6" y="328" text-anchor="middle" fill="#ece5d2">a</text><text x="259.2" y="328" text-anchor="middle" fill="#ece5d2">d</text><text x="268.8" y="328" text-anchor="middle" fill="#ece5d2">b</text><text x="278.4" y="328" text-anchor="middle" fill="#ece5d2">e</text><text x="288.0" y="328" text-anchor="middle" fill="#ece5d2">l</text><text x="297.6" y="328" text-anchor="middle" fill="#ece5d2">c</text><text x="307.2" y="328" text-anchor="middle" fill="#ece5d2">h</text><text x="316.8" y="328" text-anchor="middle" fill="#ece5d2">e</text><text x="326.4" y="328" text-anchor="middle" fill="#ece5d2">r</text><text x="336.0" y="328" text-anchor="middle" fill="#ece5d2">]</text><text x="355.2" y="328" text-anchor="middle" fill="#ece5d2">o</text><text x="364.8" y="328" text-anchor="middle" fill="#ece5d2">w</text><text x="374.4" y="328" text-anchor="middle" fill="#ece5d2">n</text><text x="384.0" y="328" text-anchor="middle" fill="#ece5d2">e</text><text x="393.6" y="328" text-anchor="middle" fill="#ece5d2">d</text></g></svg>
